<svg width="42" height="23" viewBox="0 0 42 23" fill="none" xmlns="http://www.w3.org/2000/svg">
<path d="M3.43262 6.12402H1.7627V9H0.820312V1.89062H3.17383C3.97461 1.89062 4.58984 2.07292 5.01953 2.4375C5.45247 2.80208 5.66895 3.33268 5.66895 4.0293C5.66895 4.47201 5.5485 4.85775 5.30762 5.18652C5.06999 5.5153 4.73796 5.76107 4.31152 5.92383L5.98145 8.94141V9H4.97559L3.43262 6.12402ZM1.7627 5.35742H3.20312C3.66862 5.35742 4.03809 5.23698 4.31152 4.99609C4.58822 4.75521 4.72656 4.43294 4.72656 4.0293C4.72656 3.58984 4.59473 3.25293 4.33105 3.01855C4.07064 2.78418 3.69303 2.66536 3.19824 2.66211H1.7627V5.35742ZM11.0059 5.71387H7.9248V8.2334H11.5039V9H6.9873V1.89062H11.4551V2.66211H7.9248V4.94727H11.0059V5.71387ZM17.9004 6.74414C17.8125 7.49609 17.5342 8.07715 17.0654 8.4873C16.5999 8.89421 15.9798 9.09766 15.2051 9.09766C14.3652 9.09766 13.6914 8.79655 13.1836 8.19434C12.679 7.59212 12.4268 6.78646 12.4268 5.77734V5.09375C12.4268 4.43294 12.5439 3.85189 12.7783 3.35059C13.016 2.84928 13.3512 2.46517 13.7842 2.19824C14.2171 1.92806 14.7184 1.79297 15.2881 1.79297C16.0433 1.79297 16.6488 2.00456 17.1045 2.42773C17.5602 2.84766 17.8255 3.43034 17.9004 4.17578H16.958C16.8766 3.60938 16.6992 3.19922 16.4258 2.94531C16.1556 2.69141 15.7764 2.56445 15.2881 2.56445C14.6891 2.56445 14.2188 2.78581 13.877 3.22852C13.5384 3.67122 13.3691 4.30111 13.3691 5.11816V5.80664C13.3691 6.57812 13.5303 7.19173 13.8525 7.64746C14.1748 8.10319 14.6257 8.33105 15.2051 8.33105C15.7259 8.33105 16.1247 8.21387 16.4014 7.97949C16.6813 7.74186 16.8669 7.33008 16.958 6.74414H17.9004ZM21.792 6.12402H20.1221V9H19.1797V1.89062H21.5332C22.334 1.89062 22.9492 2.07292 23.3789 2.4375C23.8118 2.80208 24.0283 3.33268 24.0283 4.0293C24.0283 4.47201 23.9079 4.85775 23.667 5.18652C23.4294 5.5153 23.0973 5.76107 22.6709 5.92383L24.3408 8.94141V9H23.335L21.792 6.12402ZM20.1221 5.35742H21.5625C22.028 5.35742 22.3975 5.23698 22.6709 4.99609C22.9476 4.75521 23.0859 4.43294 23.0859 4.0293C23.0859 3.58984 22.9541 3.25293 22.6904 3.01855C22.43 2.78418 22.0524 2.66536 21.5576 2.66211H20.1221V5.35742ZM30.3516 1.89062V6.72461C30.3483 7.39518 30.1367 7.94368 29.7168 8.37012C29.3001 8.79655 28.7337 9.03581 28.0176 9.08789L27.7686 9.09766C26.9906 9.09766 26.3704 8.8877 25.9082 8.46777C25.446 8.04785 25.2116 7.47005 25.2051 6.73438V1.89062H26.1328V6.70508C26.1328 7.2194 26.2744 7.61979 26.5576 7.90625C26.8408 8.18945 27.2445 8.33105 27.7686 8.33105C28.2992 8.33105 28.7044 8.18945 28.9844 7.90625C29.2676 7.62305 29.4092 7.22428 29.4092 6.70996V1.89062H30.3516ZM32.8369 9H31.8994V1.89062H32.8369V9ZM39.3213 2.66211H37.0361V9H36.1035V2.66211H33.8232V1.89062H39.3213V2.66211Z" fill="#414141"/>
<path d="M5.93555 15.3848H2.70117V17.418H6.52148V19H0.644531V10.4688H6.5332V12.0566H2.70117V13.8555H5.93555V15.3848ZM7.35938 19V10.4688H10.1074C10.8613 10.4688 11.5391 10.6406 12.1406 10.9844C12.7422 11.3242 13.2109 11.8066 13.5469 12.4316C13.8867 13.0527 14.0586 13.75 14.0625 14.5234V14.916C14.0625 15.6973 13.8965 16.3984 13.5645 17.0195C13.2363 17.6367 12.7715 18.1211 12.1699 18.4727C11.5723 18.8203 10.9043 18.9961 10.166 19H7.35938ZM9.41602 12.0566V17.418H10.1309C10.7207 17.418 11.1738 17.209 11.4902 16.791C11.8066 16.3691 11.9648 15.7441 11.9648 14.916V14.5469C11.9648 13.7227 11.8066 13.1016 11.4902 12.6836C11.1738 12.2656 10.7129 12.0566 10.1074 12.0566H9.41602Z" fill="#6FC1D8"/>
<path d="M18.1758 14.3125L19.9512 10.4688H21.873L19.0723 15.9062V19H17.2852V15.9062L14.4844 10.4688H16.4121L18.1758 14.3125ZM29.4844 14.9277C29.4844 15.7676 29.3359 16.5039 29.0391 17.1367C28.7422 17.7695 28.3164 18.2578 27.7617 18.6016C27.2109 18.9453 26.5781 19.1172 25.8633 19.1172C25.1562 19.1172 24.5254 18.9473 23.9707 18.6074C23.416 18.2676 22.9863 17.7832 22.6816 17.1543C22.377 16.5215 22.2227 15.7949 22.2188 14.9746V14.5527C22.2188 13.7129 22.3691 12.9746 22.6699 12.3379C22.9746 11.6973 23.4023 11.207 23.9531 10.8672C24.5078 10.5234 25.1406 10.3516 25.8516 10.3516C26.5625 10.3516 27.1934 10.5234 27.7441 10.8672C28.2988 11.207 28.7266 11.6973 29.0273 12.3379C29.332 12.9746 29.4844 13.7109 29.4844 14.5469V14.9277ZM27.7031 14.541C27.7031 13.6465 27.543 12.9668 27.2227 12.502C26.9023 12.0371 26.4453 11.8047 25.8516 11.8047C25.2617 11.8047 24.8066 12.0352 24.4863 12.4961C24.166 12.9531 24.0039 13.625 24 14.5117V14.9277C24 15.7988 24.1602 16.4746 24.4805 16.9551C24.8008 17.4355 25.2617 17.6758 25.8633 17.6758C26.4531 17.6758 26.9062 17.4453 27.2227 16.9844C27.5391 16.5195 27.6992 15.8438 27.7031 14.957V14.541ZM37.2188 10.4688V16.0879C37.2188 17.0215 36.9258 17.7598 36.3398 18.3027C35.7578 18.8457 34.9609 19.1172 33.9492 19.1172C32.9531 19.1172 32.1621 18.8535 31.5762 18.3262C30.9902 17.7988 30.6914 17.0742 30.6797 16.1523V10.4688H32.4375V16.0996C32.4375 16.6582 32.5703 17.0664 32.8359 17.3242C33.1055 17.5781 33.4766 17.7051 33.9492 17.7051C34.9375 17.7051 35.4395 17.1855 35.4551 16.1465V10.4688H37.2188Z" fill="#414141"/>
</svg>
